<svg xmlns="http://www.w3.org/2000/svg" fill="currentColor" aria-labelledby="t d" viewBox="0 0 815.84 151.34"><title>Sprinters — Running Team</title><desc>Logotipo Sprinters con bajada Running Team</desc><path d="M71.27 74.45C67.57 95.54 48 108.58 25.1 108.58c-7.39 0-12.66-.85-17.97-1.61-4.88-.7-7.86-4.98-6.97-10.04l4.02-22.92c4.7 6.96 16.49 11.5 25.12 11.5 5.6 0 8.98-2.86 9.68-6.81 2.23-12.74-28.34-15.62-23.15-45.2C19.44 12.9 35.65 0 60.06 0c4.57 0 8.15.63 11.7 1.24 4.89.83 7.8 5.16 6.91 10.25l-3.52 20.06c-3.79-6.07-11.9-9.11-18.87-9.11-5.3 0-8.47 2.41-9.16 6.38-1.99 11.36 29.4 15.62 24.15 45.63m45.78-24.85h5.91a15.5 15.5 0 0 0 15.53-12.45c.98-5.62-2.19-12.58-11.13-12.58h-5.92Zm-9.16 56.55H76.8c1.27-4.69 3.72-16.84 5.52-27.14l8.7-49.59c1.81-10.31 3.67-22.6 4-27.14h39.88c25.17 0 36.72 14.55 33.1 35.17-3.64 20.79-19.7 34.44-45.31 34.44h-9.55L111.9 79c-1.82 10.3-3.64 22.45-4.01 27.14m99.61-57.78h7.29c7.43 0 13.12-4.85 14.22-11.07 1.06-6.06-2.36-11.7-10.7-11.7h-6.8Zm-9.37 57.8h-31.08c1.27-4.7 3.75-16.99 5.56-27.31l8.67-49.43c1.81-10.31 3.66-22.6 4-27.14h38.5c26.54 0 38.42 14.38 34.96 34.12-2.9 16.52-13.45 24.72-25.47 28.51 10.15 13.04 17.56 28.66 29.3 41.24H224.2c-3.96-5.92-14.45-25.63-16.58-36.85-.62.16-1.09.16-1.38.16h-2.44l-1.65 9.4c-1.8 10.3-3.64 22.6-4.02 27.3M302.4 79.01a562 562 0 0 0-4.15 27.14h-30.77a599 599 0 0 0 5.35-27.14l8.7-49.59a572 572 0 0 0 4.17-27.14h30.78a591 591 0 0 0-5.37 27.14Zm36.54 27.14h-29.56a418 418 0 0 0 4.45-21.98l9.42-53.69c1.63-9.26 3.56-22 4.7-30.18h6.22c6.88 8.34 10.7 12.44 14.6 16.23l32.7 33.07L385 29.42a724 724 0 0 0 4.16-27.14h29.57a739 739 0 0 0-5.53 27.14l-9.47 53.98a378 378 0 0 0-3.55 24.57h-5.92c-4.22-5.31-8.17-10.47-12.28-14.7l-35.17-35.5-4.66 26.55a408 408 0 0 0-3.22 21.83M522.28 1.66l-4.53 25.8c-4.5-.3-17-.77-27.47-.77h-3.49a818 818 0 0 0-3.55 19.4l-5.78 32.92c-1.81 10.31-3.64 22.45-4 27.14h-31.4c1.13-4.7 3.72-16.83 5.54-27.14l5.77-32.91a377 377 0 0 0 2.94-19.4h-3.5c-10.3 0-22.81.43-27.4.76l4.51-25.8c4.5.3 16.87.62 27.19.62h37.45c10.46 0 23.1-.33 27.72-.62m34 25.04-2.47 14.1h6.07a502 502 0 0 0 26.35-.62l-4.51 25.64c-4.64-.31-15.8-.61-26.13-.61h-6.07l-2.87 16.38h9.25c10.46 0 21.88-.3 26.5-.62l-4.53 25.8c-4.5-.3-15.82-.62-26.29-.62h-39.56a998 998 0 0 0 5.36-27.14l8.73-49.76a566 566 0 0 0 4.13-26.97h38.36c10.3 0 21.79-.62 26.53-.92l-4.55 25.93c-4.6-.45-15.94-.6-26.25-.6Zm73.26 21.66h7.28c7.43 0 13.12-4.85 14.22-11.07 1.06-6.06-2.36-11.7-10.69-11.7h-6.82Zm-9.38 57.8h-31.08c1.28-4.7 3.74-16.99 5.56-27.31l8.67-49.43c1.81-10.31 3.67-22.6 4-27.14h38.5c26.55 0 38.42 14.38 34.96 34.12-2.9 16.52-13.45 24.72-25.47 28.51 10.15 13.04 17.57 28.66 29.3 41.24h-38.36c-3.97-5.92-14.46-25.63-16.58-36.85-.63.16-1.1.16-1.4.16h-2.43l-1.65 9.4c-1.8 10.3-3.65 22.6-4.02 27.3m142.07-31.71c-3.7 21.09-23.27 34.13-46.17 34.13-7.39 0-12.66-.85-17.97-1.61-4.88-.7-7.85-4.98-6.97-10.04l4.02-22.92c4.7 6.96 16.5 11.5 25.12 11.5 5.6 0 8.99-2.86 9.68-6.81 2.23-12.74-28.34-15.62-23.15-45.2C710.41 12.9 726.62 0 751.03 0c4.57 0 8.14.63 11.7 1.24 4.88.83 7.8 5.16 6.9 10.25l-3.51 20.06c-3.8-6.07-11.9-9.11-18.87-9.11-5.31 0-8.47 2.41-9.17 6.38-1.98 11.36 29.41 15.62 24.15 45.63m36-57.34q1.73 0 2.52-.55.77-.54.78-1.84 0-2.2-3.3-2.2h-3.4v4.6Zm-7.53-8.26h7.7q7.53 0 7.53 5.14a4.4 4.4 0 0 1-1.47 3.49 6 6 0 0 1-3.4 1.47v.08q1.57.1 2.39.83a6 6 0 0 1 1.38 2.02l1.92 4.5h-4.3l-1.3-3.22a3.6 3.6 0 0 0-1.4-1.88 6 6 0 0 0-2.9-.5h-2.02v5.6h-4.13Zm17.34 19.13q3.95-3.9 3.95-10.04 0-6.15-3.95-10.05-3.94-3.9-10.18-3.9t-10.19 3.9q-3.93 3.9-3.94 10.05t3.94 10.04q3.94 3.9 10.2 3.9 6.23 0 10.17-3.9m-19.4 5.27a16.5 16.5 0 0 1-6.38-6.32 18 18 0 0 1-2.29-9q0-4.96 2.3-8.98 2.28-4.04 6.37-6.33t9.22-2.3 9.21 2.3a17 17 0 0 1 6.43 6.33 17.6 17.6 0 0 1 2.34 8.99q0 4.95-2.34 8.99-2.35 4.04-6.43 6.32a18.5 18.5 0 0 1-9.2 2.3q-5.15 0-9.23-2.3m-340.6 98.86h-7.51v-3.67h19.14v3.67h-7.54v18.7h-4.1Zm-184.06 7.66H260v-7.8h4.22q3.25 0 4.6.88t1.34 2.92q0 2.14-1.45 3.07-1.46.93-4.74.93m7.03 2.69q-1.06-.9-3.07-1.1v-.06a8 8 0 0 0 3.07-.87 6.6 6.6 0 0 0 2.4-2.05 5 5 0 0 0 .92-3q0-3.41-2.33-5.14t-7.36-1.72h-8.72v22.37h4.1v-8.02h3.89q1.95 0 3.13.76 1.19.78 1.82 2.4l1.95 4.86h4.64l-2.63-5.84a7 7 0 0 0-1.81-2.6m24.65-1.15q0 3.05-1.65 4.7t-4.65 1.66-4.64-1.66q-1.62-1.65-1.63-4.7v-12.78H279v12.78q-.01 3.1 1.24 5.37a8.3 8.3 0 0 0 3.58 3.47q2.34 1.2 5.53 1.2 3.22 0 5.56-1.2a8.3 8.3 0 0 0 3.58-3.47q1.25-2.26 1.25-5.37v-12.78h-4.1Zm27.1-1.56.13 5.6h-.07l-12.68-16.82h-4.55v22.37h4.1v-11.21l-.13-5.6h.06l12.7 16.81h4.53v-22.37h-4.09Zm36.64 11.15h4.09v-22.37h-4.1Zm27.32-11.15.13 5.6h-.06l-12.69-16.82h-4.54v22.37h4.1v-11.21l-.14-5.6h.07l12.69 16.81h4.53v-22.37h-4.09Zm77.09 11.16h15.69v-3.46h-11.6v-6.1h10.76v-3.26h-10.77v-6.1h11.6v-3.46H463.8Zm29.78-18.8 4.25 11.44h-8.57Zm-2.37-3.58-8.76 22.37h4.13l1.44-3.93h11.06l1.44 3.93h4.15L496 128.52Zm38.59 0-8.51 16.08-8.53-16.08h-4.6l.02 22.37h4.1v-10.13l-.23-5.82h.07l9.07 16.4h.17l9.07-16.4h.07l-.23 5.82v10.13h4.1l.03-22.37Zm-180.16 11.22.13 5.6h-.06l-12.7-16.82h-4.53v22.37h4.1v-11.21l-.14-5.6h.07l12.69 16.81h4.54v-22.37h-4.1Zm67.28-.32h-11.56v2.33h7.24a8.5 8.5 0 0 1-1.7 3.77 6 6 0 0 1-4.91 2.14q-2.94 0-4.5-1.92-1.55-1.91-1.55-5.62 0-4.2 2.1-6.3 2.1-2.07 6.4-2.07 1.67 0 3.5.3 1.85.3 4.4 1.07v-3.84q-2.4-.66-4.25-.94a25 25 0 0 0-3.61-.27q-6.1 0-9.45 3.18t-3.34 9q0 3.39 1.14 5.88a9 9 0 0 0 3.23 3.85q2.1 1.36 4.94 1.36a8 8 0 0 0 5.62-2.06 9 9 0 0 0 2.65-5.67h.06l.33 7.28h3.26v-9.14h.01zm0 0"/></svg>